 <svg version="1.0" xmlns="http://www.w3.org/2000/svg" width="700.000000pt" height="221.000000pt" viewBox="0 0 700.000000 221.000000" preserveAspectRatio="xMidYMid meet">
<metadata>
Created by potrace 1.12, written by Peter Selinger 2001-2015
</metadata>
<g transform="translate(0.000000,221.000000) scale(0.100000,-0.100000)" fill="#000000" stroke="none">
<path d="M820 2171 c-63 -20 -71 -23 -166 -63 -172 -72 -357 -227 -462 -387
-94 -144 -172 -345 -172 -446 0 -55 17 -60 25 -7 14 83 70 242 116 333 98 191
262 354 452 450 94 47 249 100 330 114 20 3 37 10 37 15 0 15 -99 9 -160 -9z"></path>
<path d="M1210 2181 c0 -5 26 -15 58 -21 87 -17 259 -77 332 -117 143 -77 298
-222 391 -365 45 -71 103 -206 130 -307 32 -117 37 -347 11 -471 -50 -240
-162 -429 -355 -598 -336 -295 -851 -334 -1237 -94 -88 55 -244 201 -306 288
-84 118 -161 311 -189 477 -9 55 -25 45 -24 -15 0 -52 28 -181 42 -194 4 -4 7
-13 7 -20 0 -13 68 -159 97 -209 91 -155 295 -339 464 -417 87 -41 216 -78
309 -90 166 -20 402 2 525 50 93 37 247 125 312 179 225 185 357 415 402 701
38 244 -34 556 -176 761 -160 231 -359 373 -635 452 -71 20 -158 25 -158 10z"></path>
<path d="M1000 2109 c-98 -9 -238 -47 -328 -89 -210 -98 -411 -308 -501 -525
-111 -265 -94 -602 41 -853 71 -131 205 -282 321 -361 69 -47 197 -105 302
-137 83 -26 103 -28 260 -28 156 0 177 2 260 27 110 33 258 104 323 152 123
93 250 241 311 362 62 123 111 320 111 442 0 63 -18 189 -40 278 -17 71 -83
215 -135 294 -126 191 -350 351 -570 408 -72 18 -111 24 -235 35 -19 2 -73 -1
-120 -5z m320 -54 c97 -27 124 -36 178 -61 92 -42 194 -115 277 -198 135 -136
193 -239 266 -476 17 -56 20 -385 3 -421 -6 -13 -21 -55 -34 -94 -109 -329
-357 -552 -713 -639 -116 -29 -268 -35 -354 -15 -67 16 -144 38 -168 48 -11 5
-46 19 -77 31 -208 80 -439 329 -512 552 -47 144 -50 162 -50 323 -1 169 6
218 51 339 85 228 267 429 490 541 59 29 191 71 283 89 51 10 305 -3 360 -19z"></path>
<path d="M807 1436 c-48 -18 -104 -61 -127 -98 -43 -72 -32 -171 30 -265 39
-60 369 -403 387 -403 6 0 94 85 196 189 210 215 247 270 247 375 0 107 -83
197 -194 211 -91 12 -154 -11 -209 -76 -19 -21 -37 -39 -40 -39 -4 0 -22 17
-41 38 -67 74 -160 99 -249 68z m146 -35 c13 -5 45 -28 71 -50 58 -50 84 -52
133 -7 55 49 95 66 154 66 111 0 181 -62 187 -168 7 -101 -21 -145 -221 -349
-94 -95 -175 -173 -182 -173 -21 0 -332 325 -364 381 -71 125 -45 241 64 290
43 20 119 25 158 10z"></path>
<path d="M4152 1016 l3 -315 29 -30 c30 -32 50 -38 131 -43 l50 -3 6 55 c3 30
9 69 14 86 6 27 4 32 -14 37 -21 5 -21 10 -21 266 l0 261 -101 0 -100 0 3
-314z"></path>
<path d="M2472 974 l3 -336 100 -1 100 -1 3 122 3 122 44 0 44 0 3 -121 3
-121 98 -1 99 -1 -1 335 0 334 -100 3 -100 3 -3 -128 -3 -128 -34 -3 c-18 -2
-38 1 -44 7 -6 6 -9 57 -8 131 l2 120 -105 0 -106 0 2 -336z"></path>
<path d="M3217 1156 c-20 -7 -44 -19 -53 -27 -46 -38 -91 -173 -81 -245 17
-122 42 -174 105 -218 37 -27 52 -30 130 -33 53 -2 106 2 137 10 l50 14 -3 69
c-2 38 -7 72 -10 76 -4 4 -25 3 -47 -2 -58 -14 -131 -12 -143 3 -23 27 3 36
113 39 l110 3 3 84 c6 172 -44 234 -192 239 -51 1 -95 -3 -119 -12z m127 -172
c11 -28 7 -34 -24 -34 -22 0 -30 5 -30 18 0 10 3 22 7 25 12 13 41 7 47 -9z"></path>
<path d="M3691 1155 c-29 -7 -57 -17 -62 -22 -9 -9 9 -151 21 -165 3 -4 27 -1
54 7 65 20 126 20 126 0 0 -8 -12 -17 -27 -20 -127 -27 -159 -43 -179 -92 -18
-42 -18 -115 0 -158 29 -70 131 -97 207 -56 35 19 36 19 65 0 35 -23 152 -28
159 -6 2 6 5 41 8 75 3 60 2 64 -20 73 -24 9 -24 10 -21 146 3 124 1 141 -18
173 -11 19 -31 41 -45 47 -31 16 -197 15 -268 -2z m149 -345 c0 -23 -26 -38
-41 -23 -14 14 0 43 22 43 12 0 19 -7 19 -20z"></path>
<path d="M4464 1155 c-3 -6 -3 -125 -2 -264 l3 -255 100 1 100 1 3 171 c2 163
3 171 22 171 19 0 20 -7 20 -170 0 -93 3 -170 8 -170 4 0 49 -1 101 -2 l94 -2
-2 165 c-2 137 0 168 13 178 32 27 37 3 35 -172 l-2 -171 99 1 99 1 3 218 c3
234 -1 259 -46 294 -35 28 -121 27 -178 -2 l-44 -22 -23 22 c-30 28 -119 30
-172 5 -29 -14 -38 -15 -44 -4 -10 16 -181 22 -187 6z"></path>
<path d="M5384 1151 c-81 -37 -117 -112 -118 -249 -1 -87 2 -103 27 -154 43
-87 100 -118 216 -118 36 1 91 7 121 14 45 11 54 16 52 32 -2 10 -6 44 -10 74
-6 47 -10 55 -27 52 -92 -13 -158 -14 -166 -1 -22 35 -11 39 107 39 l116 0 -4
113 c-3 99 -6 116 -27 146 -13 18 -42 42 -65 52 -56 25 -166 25 -222 0z m134
-179 c3 -19 -1 -22 -27 -22 -33 0 -41 16 -19 38 18 18 43 10 46 -16z"></path>
</g>
</svg>